<?xml version="1.0" encoding="UTF-8" standalone="no"?>
<svg viewBox="0 0 800 600" xmlns="http://www.w3.org/2000/svg">
  <!-- Dashboard Background -->
  <rect x="0" y="0" width="800" height="600" fill="#f5f5f5"/>
  
  <!-- Dashboard Title -->
  <rect x="20" y="20" width="760" height="60" rx="5" fill="#4285f4"/>
  <text x="400" y="55" font-family="Arial" font-size="24" fill="white" text-anchor="middle" font-weight="bold">NYC Yellow Taxi Trip Dashboard</text>
  
  <!-- Date Range Filter -->
  <rect x="20" y="90" width="760" height="40" rx="5" fill="#ffffff" stroke="#dddddd"/>
  <text x="40" y="115" font-family="Arial" font-size="14" fill="#333333">Date Range: </text>
  <rect x="120" y="95" width="200" height="30" rx="3" fill="#e8f0fe" stroke="#4285f4"/>
  <text x="220" y="115" font-family="Arial" font-size="14" fill="#333333" text-anchor="middle">Jan 1, 2023 - Mar 31, 2023</text>
  
  <!-- Trip Count by Borough (Categorical Distribution) -->
  <rect x="20" y="140" width="370" height="220" rx="5" fill="#ffffff" stroke="#dddddd"/>
  <text x="40" y="165" font-family="Arial" font-size="16" fill="#333333" font-weight="bold">Daily Trips by Borough</text>
  
  <!-- Borough Chart (Donut) -->
  <circle cx="205" cy="250" r="80" fill="none" stroke="#dddddd" stroke-width="1"/>
  
  <!-- Donut Chart Segments -->
  <path d="M 205 250 L 205 170 A 80 80 0 0 1 277 309 Z" fill="#4285f4"/>
  <path d="M 205 250 L 277 309 A 80 80 0 0 1 133 309 Z" fill="#ea4335"/>
  <path d="M 205 250 L 133 309 A 80 80 0 0 1 125 191 Z" fill="#fbbc05"/>
  <path d="M 205 250 L 125 191 A 80 80 0 0 1 205 170 Z" fill="#34a853"/>
  
  <!-- Legend -->
  <rect x="40" y="320" width="15" height="15" fill="#4285f4"/>
  <text x="60" y="333" font-family="Arial" font-size="12" fill="#333333">Manhattan (45%)</text>
  
  <rect x="150" y="320" width="15" height="15" fill="#ea4335"/>
  <text x="170" y="333" font-family="Arial" font-size="12" fill="#333333">Brooklyn (25%)</text>
  
  <rect x="40" y="345" width="15" height="15" fill="#fbbc05"/>
  <text x="60" y="358" font-family="Arial" font-size="12" fill="#333333">Queens (20%)</text>
  
  <rect x="150" y="345" width="15" height="15" fill="#34a853"/>
  <text x="170" y="358" font-family="Arial" font-size="12" fill="#333333">Bronx (10%)</text>
  
  <!-- Daily Trip Count (Temporal Distribution) -->
  <rect x="410" y="140" width="370" height="220" rx="5" fill="#ffffff" stroke="#dddddd"/>
  <text x="430" y="165" font-family="Arial" font-size="16" fill="#333333" font-weight="bold">Daily Trip Count Trend</text>
  
  <!-- Line Chart -->
  <polyline points="430,310 450,280 470,290 490,270 510,290 530,260 550,240 570,250 590,230 610,240 630,220 650,210 670,230 690,200 710,190 730,210" 
           fill="none" stroke="#4285f4" stroke-width="2"/>
  
  <!-- X-Axis -->
  <line x1="430" y1="310" x2="730" y2="310" stroke="#333333" stroke-width="1"/>
  <text x="430" y="325" font-family="Arial" font-size="10" fill="#333333">Jan 1</text>
  <text x="580" y="325" font-family="Arial" font-size="10" fill="#333333">Feb 15</text>
  <text x="730" y="325" font-family="Arial" font-size="10" fill="#333333" text-anchor="end">Mar 31</text>
  
  <!-- Y-Axis -->
  <line x1="430" y1="310" x2="430" y2="190" stroke="#333333" stroke-width="1"/>
  <text x="420" y="310" font-family="Arial" font-size="10" fill="#333333" text-anchor="end">0</text>
  <text x="420" y="250" font-family="Arial" font-size="10" fill="#333333" text-anchor="end">5k</text>
  <text x="420" y="190" font-family="Arial" font-size="10" fill="#333333" text-anchor="end">10k</text>
  
  <!-- KPI Cards -->
  <rect x="20" y="380" width="180" height="100" rx="5" fill="#ffffff" stroke="#dddddd"/>
  <text x="110" y="410" font-family="Arial" font-size="16" fill="#333333" text-anchor="middle" font-weight="bold">Total Trips</text>
  <text x="110" y="450" font-family="Arial" font-size="24" fill="#4285f4" text-anchor="middle" font-weight="bold">543,291</text>
  
  <rect x="220" y="380" width="180" height="100" rx="5" fill="#ffffff" stroke="#dddddd"/>
  <text x="310" y="410" font-family="Arial" font-size="16" fill="#333333" text-anchor="middle" font-weight="bold">Avg Distance</text>
  <text x="310" y="450" font-family="Arial" font-size="24" fill="#ea4335" text-anchor="middle" font-weight="bold">2.7 mi</text>
  
  <rect x="420" y="380" width="180" height="100" rx="5" fill="#ffffff" stroke="#dddddd"/>
  <text x="510" y="410" font-family="Arial" font-size="16" fill="#333333" text-anchor="middle" font-weight="bold">Avg Fare</text>
  <text x="510" y="450" font-family="Arial" font-size="24" fill="#fbbc05" text-anchor="middle" font-weight="bold">$13.45</text>
  
  <rect x="620" y="380" width="160" height="100" rx="5" fill="#ffffff" stroke="#dddddd"/>
  <text x="700" y="410" font-family="Arial" font-size="16" fill="#333333" text-anchor="middle" font-weight="bold">Total Revenue</text>
  <text x="700" y="450" font-family="Arial" font-size="24" fill="#34a853" text-anchor="middle" font-weight="bold">$7.3M</text>
  
  <!-- Hourly Trip Distribution Chart -->
  <rect x="20" y="500" width="760" height="80" rx="5" fill="#ffffff" stroke="#dddddd"/>
  <text x="40" y="525" font-family="Arial" font-size="16" fill="#333333" font-weight="bold">Hourly Trip Distribution</text>
  
  <!-- Bar Chart -->
  <rect x="40" y="535" width="15" height="30" fill="#4285f4"/>
  <rect x="60" y="550" width="15" height="15" fill="#4285f4"/>
  <rect x="80" y="545" width="15" height="20" fill="#4285f4"/>
  <rect x="100" y="550" width="15" height="15" fill="#4285f4"/>
  <rect x="120" y="555" width="15" height="10" fill="#4285f4"/>
  <rect x="140" y="555" width="15" height="10" fill="#4285f4"/>
  <rect x="160" y="550" width="15" height="15" fill="#4285f4"/>
  <rect x="180" y="540" width="15" height="25" fill="#4285f4"/>
  <rect x="200" y="530" width="15" height="35" fill="#4285f4"/>
  <rect x="220" y="545" width="15" height="20" fill="#4285f4"/>
  <rect x="240" y="540" width="15" height="25" fill="#4285f4"/>
  <rect x="260" y="535" width="15" height="30" fill="#4285f4"/>
  <rect x="280" y="530" width="15" height="35" fill="#4285f4"/>
  <rect x="300" y="535" width="15" height="30" fill="#4285f4"/>
  <rect x="320" y="530" width="15" height="35" fill="#4285f4"/>
  <rect x="340" y="535" width="15" height="30" fill="#4285f4"/>
  <rect x="360" y="530" width="15" height="35" fill="#4285f4"/>
  <rect x="380" y="525" width="15" height="40" fill="#4285f4"/>
  <rect x="400" y="520" width="15" height="45" fill="#4285f4"/>
  <rect x="420" y="535" width="15" height="30" fill="#4285f4"/>
  <rect x="440" y="535" width="15" height="30" fill="#4285f4"/>
  <rect x="460" y="530" width="15" height="35" fill="#4285f4"/>
  <rect x="480" y="535" width="15" height="30" fill="#4285f4"/>
  <rect x="500" y="535" width="15" height="30" fill="#4285f4"/>
  <rect x="520" y="540" width="15" height="25" fill="#4285f4"/>
  <rect x="540" y="525" width="15" height="40" fill="#4285f4"/>
  <rect x="560" y="530" width="15" height="35" fill="#4285f4"/>
  <rect x="580" y="535" width="15" height="30" fill="#4285f4"/>
  <rect x="600" y="540" width="15" height="25" fill="#4285f4"/>
  <rect x="620" y="535" width="15" height="30" fill="#4285f4"/>
  <rect x="640" y="530" width="15" height="35" fill="#4285f4"/>
  <rect x="660" y="540" width="15" height="25" fill="#4285f4"/>
  <rect x="680" y="555" width="15" height="10" fill="#4285f4"/>
  <rect x="700" y="550" width="15" height="15" fill="#4285f4"/>
  <rect x="720" y="545" width="15" height="20" fill="#4285f4"/>
  
  <!-- X-Axis labels -->
  <text x="47" y="575" font-family="Arial" font-size="8" fill="#333333" text-anchor="middle">0</text>
  <text x="167" y="575" font-family="Arial" font-size="8" fill="#333333" text-anchor="middle">4</text>
  <text x="287" y="575" font-family="Arial" font-size="8" fill="#333333" text-anchor="middle">8</text>
  <text x="407" y="575" font-family="Arial" font-size="8" fill="#333333" text-anchor="middle">12</text>
  <text x="527" y="575" font-family="Arial" font-size="8" fill="#333333" text-anchor="middle">16</text>
  <text x="647" y="575" font-family="Arial" font-size="8" fill="#333333" text-anchor="middle">20</text>
  <text x="727" y="575" font-family="Arial" font-size="8" fill="#333333" text-anchor="middle">23</text>
</svg>